# MagicaVoxel @ Ephtracy

# group
o 

# material
mtllib Mountain.mtl
usemtl palette

# normals
vn -1 0 0
vn 1 0 0
vn 0 0 1
vn 0 0 -1
vn 0 -1 0
vn 0 1 0

# texcoords
vt 0.841797 0.5
vt 0.970703 0.5
vt 0.974609 0.5

# verts
v -5 -5 5
v -5 -5 -5
v -5 -3.5 5
v -5 -3.5 -5
v -3.8 -3.5 1.4
v -3.8 -3.5 -4
v -3.8 1.6 1.4
v -3.8 1.6 -4
v -3 1.6 0.4
v -3 1.6 -2.8
v -3 2.9 0.4
v -3 2.9 -2.8
v -2.6 -3.5 2.5
v -2.6 -3.5 1.4
v -2.6 1.6 2.5
v -2.6 1.6 1.4
v -1.2 -3.5 3.9
v -1.2 -3.5 2.5
v -1.2 -1.7 3.9
v -1.2 -1.7 2.5
v -0.9 1.6 0.4
v -0.9 1.6 -2.8
v -0.9 2.9 0.4
v -0.9 2.9 -2.8
v -0.4 -1.7 2.5
v -0.4 -1.7 0.6
v -0.4 1.6 2.5
v -0.4 1.6 0.6
v 0.2 -3.5 -3.1
v 0.2 -3.5 -4
v 0.2 1.6 -3.1
v 0.2 1.6 -4
v 2.2 -3.5 -0.4
v 2.2 -3.5 -3.1
v 2.2 -1.7 0.6
v 2.2 -1.7 -0.4
v 2.2 1.6 0.6
v 2.2 1.6 -3.1
v 3.2 -3.5 3.9
v 3.2 -3.5 -0.4
v 3.2 -1.7 3.9
v 3.2 -1.7 -0.4
v 5 -5 5
v 5 -5 -5
v 5 -3.5 5
v 5 -3.5 -5
v -5 -5 5
v -5 -3.5 5
v 5 -5 5
v 5 -3.5 5
v -1.2 -3.5 3.9
v -1.2 -1.7 3.9
v 3.2 -3.5 3.9
v 3.2 -1.7 3.9
v -2.6 -3.5 2.5
v -2.6 1.6 2.5
v -1.2 -3.5 2.5
v -1.2 -1.7 2.5
v -0.4 -1.7 2.5
v -0.4 1.6 2.5
v -3.8 -3.5 1.4
v -3.8 1.6 1.4
v -2.6 -3.5 1.4
v -2.6 1.6 1.4
v -0.4 -1.7 0.6
v -0.4 1.6 0.6
v 2.2 -1.7 0.6
v 2.2 1.6 0.6
v -3 1.6 0.4
v -3 2.9 0.4
v -0.9 1.6 0.4
v -0.9 2.9 0.4
v 2.2 -3.5 -0.4
v 2.2 -1.7 -0.4
v 3.2 -3.5 -0.4
v 3.2 -1.7 -0.4
v -3 1.6 -2.8
v -3 2.9 -2.8
v -0.9 1.6 -2.8
v -0.9 2.9 -2.8
v 0.2 -3.5 -3.1
v 0.2 1.6 -3.1
v 2.2 -3.5 -3.1
v 2.2 1.6 -3.1
v -3.8 -3.5 -4
v -3.8 1.6 -4
v 0.2 -3.5 -4
v 0.2 1.6 -4
v -5 -5 -5
v -5 -3.5 -5
v 5 -5 -5
v 5 -3.5 -5
v -5 -5 5
v 5 -5 5
v -5 -5 -5
v 5 -5 -5
v -5 -3.5 5
v 5 -3.5 5
v -1.2 -3.5 3.9
v 3.2 -3.5 3.9
v -2.6 -3.5 2.5
v -1.2 -3.5 2.5
v -3.8 -3.5 1.4
v -2.6 -3.5 1.4
v 2.2 -3.5 -0.4
v 3.2 -3.5 -0.4
v 0.2 -3.5 -3.1
v 2.2 -3.5 -3.1
v -3.8 -3.5 -4
v 0.2 -3.5 -4
v -5 -3.5 -5
v 5 -3.5 -5
v -1.2 -1.7 3.9
v 3.2 -1.7 3.9
v -1.2 -1.7 2.5
v -0.4 -1.7 2.5
v -0.4 -1.7 0.6
v 2.2 -1.7 0.6
v 2.2 -1.7 -0.4
v 3.2 -1.7 -0.4
v -2.6 1.6 2.5
v -0.4 1.6 2.5
v -3.8 1.6 1.4
v -2.6 1.6 1.4
v -0.4 1.6 0.6
v 2.2 1.6 0.6
v -3 1.6 0.4
v -0.9 1.6 0.4
v -3 1.6 -2.8
v -0.9 1.6 -2.8
v 0.2 1.6 -3.1
v 2.2 1.6 -3.1
v -3.8 1.6 -4
v 0.2 1.6 -4
v -3 2.9 0.4
v -0.9 2.9 0.4
v -3 2.9 -2.8
v -0.9 2.9 -2.8

# faces
f 3/2/1 2/2/1 1/2/1
f 4/2/1 2/2/1 3/2/1
f 7/3/1 6/3/1 5/3/1
f 8/3/1 6/3/1 7/3/1
f 11/3/1 10/3/1 9/3/1
f 12/3/1 10/3/1 11/3/1
f 15/3/1 14/3/1 13/3/1
f 16/3/1 14/3/1 15/3/1
f 19/3/1 18/3/1 17/3/1
f 20/3/1 18/3/1 19/3/1
f 21/3/2 22/3/2 23/3/2
f 23/3/2 22/3/2 24/3/2
f 25/3/2 26/3/2 27/3/2
f 27/3/2 26/3/2 28/3/2
f 29/3/2 30/3/2 31/3/2
f 31/3/2 30/3/2 32/3/2
f 33/3/2 34/3/2 36/3/2
f 35/3/2 36/3/2 37/3/2
f 36/3/2 34/3/2 38/3/2
f 37/3/2 36/3/2 38/3/2
f 39/3/2 40/3/2 41/3/2
f 41/3/2 40/3/2 42/3/2
f 43/2/2 44/2/2 45/2/2
f 45/2/2 44/2/2 46/2/2
f 49/2/3 48/2/3 47/2/3
f 50/2/3 48/2/3 49/2/3
f 53/3/3 52/3/3 51/3/3
f 54/3/3 52/3/3 53/3/3
f 57/3/3 56/3/3 55/3/3
f 58/3/3 56/3/3 57/3/3
f 59/3/3 56/3/3 58/3/3
f 60/3/3 56/3/3 59/3/3
f 63/3/3 62/3/3 61/3/3
f 64/3/3 62/3/3 63/3/3
f 67/3/3 66/3/3 65/3/3
f 68/3/3 66/3/3 67/3/3
f 71/3/3 70/3/3 69/3/3
f 72/3/3 70/3/3 71/3/3
f 73/3/4 74/3/4 75/3/4
f 75/3/4 74/3/4 76/3/4
f 77/3/4 78/3/4 79/3/4
f 79/3/4 78/3/4 80/3/4
f 81/3/4 82/3/4 83/3/4
f 83/3/4 82/3/4 84/3/4
f 85/3/4 86/3/4 87/3/4
f 87/3/4 86/3/4 88/3/4
f 89/2/4 90/2/4 91/2/4
f 91/2/4 90/2/4 92/2/4
f 95/2/5 94/2/5 93/2/5
f 96/2/5 94/2/5 95/2/5
f 97/2/6 98/2/6 99/2/6
f 99/2/6 98/2/6 100/2/6
f 97/2/6 99/2/6 101/2/6
f 101/2/6 99/2/6 102/2/6
f 97/2/6 101/2/6 103/2/6
f 103/2/6 101/2/6 104/2/6
f 100/2/6 98/2/6 106/2/6
f 105/2/6 106/2/6 108/2/6
f 97/2/6 103/2/6 109/2/6
f 107/2/6 108/2/6 110/2/6
f 97/2/6 109/2/6 111/2/6
f 109/2/6 110/2/6 111/2/6
f 110/2/6 108/2/6 112/2/6
f 111/2/6 110/2/6 112/2/6
f 106/2/6 98/2/6 112/2/6
f 108/2/6 106/2/6 112/2/6
f 113/3/6 114/3/6 115/3/6
f 115/3/6 114/3/6 116/3/6
f 116/3/6 114/3/6 117/3/6
f 117/3/6 114/3/6 118/3/6
f 118/3/6 114/3/6 119/3/6
f 119/3/6 114/3/6 120/3/6
f 121/3/6 122/3/6 124/3/6
f 124/3/6 122/3/6 125/3/6
f 123/3/6 124/3/6 125/3/6
f 123/3/6 125/3/6 127/3/6
f 125/3/6 126/3/6 127/3/6
f 127/3/6 126/3/6 128/3/6
f 123/3/6 127/3/6 129/3/6
f 128/3/6 126/3/6 130/3/6
f 130/3/6 126/3/6 131/3/6
f 129/3/6 130/3/6 131/3/6
f 131/3/6 126/3/6 132/3/6
f 123/3/6 129/3/6 133/3/6
f 129/3/6 131/3/6 133/3/6
f 133/3/6 131/3/6 134/3/6
f 135/3/6 136/3/6 137/3/6
f 137/3/6 136/3/6 138/3/6
