# MagicaVoxel @ Ephtracy

# group
o 

# material
mtllib BannerUnit_Green.mtl
usemtl palette

# normals
vn -1 0 0
vn 1 0 0
vn 0 0 1
vn 0 0 -1
vn 0 -1 0
vn 0 1 0

# texcoords
vt 0.369141 0.5
vt 0.767578 0.5
vt 0.962891 0.5

# verts
v -0.4 4.5 0.3
v -0.4 4.5 -0.3
v -0.4 4.6 0.4
v -0.4 4.6 0.3
v -0.4 4.6 -0.3
v -0.4 4.6 -0.4
v -0.4 4.8 0.4
v -0.4 4.8 -0.4
v -0.3 -1.4 2.1
v -0.3 -1.4 -2.1
v -0.3 4 2.1
v -0.3 4 -2.1
v -0.3 4.5 0.4
v -0.3 4.5 0.3
v -0.3 4.5 -0.3
v -0.3 4.5 -0.4
v -0.3 4.6 0.4
v -0.3 4.6 0.3
v -0.3 4.6 -0.3
v -0.3 4.6 -0.4
v -0.3 4.8 0.3
v -0.3 4.8 -0.3
v -0.3 4.9 0.3
v -0.3 4.9 -0.3
v -0.2 -5 0.2
v -0.2 -5 -0.2
v -0.2 -1.4 0.2
v -0.2 -1.4 -0.2
v -0.2 4 2.1
v -0.2 4 -2.1
v -0.2 4.1 2.1
v -0.2 4.1 0.2
v -0.2 4.1 -0.2
v -0.2 4.1 -2.1
v -0.2 4.5 0.2
v -0.2 4.5 -0.2
v -0.2 4.9 0.2
v -0.2 4.9 -0.2
v -0.2 5 0.2
v -0.2 5 -0.2
v 0.2 -5 0.2
v 0.2 -5 -0.2
v 0.2 -1.4 0.2
v 0.2 -1.4 -0.2
v 0.2 4 2.1
v 0.2 4 -2.1
v 0.2 4.1 2.1
v 0.2 4.1 0.2
v 0.2 4.1 -0.2
v 0.2 4.1 -2.1
v 0.2 4.5 0.2
v 0.2 4.5 -0.2
v 0.2 4.9 0.2
v 0.2 4.9 -0.2
v 0.2 5 0.2
v 0.2 5 -0.2
v 0.3 -1.4 2.1
v 0.3 -1.4 -2.1
v 0.3 4 2.1
v 0.3 4 -2.1
v 0.3 4.5 0.4
v 0.3 4.5 0.3
v 0.3 4.5 -0.3
v 0.3 4.5 -0.4
v 0.3 4.6 0.4
v 0.3 4.6 0.3
v 0.3 4.6 -0.3
v 0.3 4.6 -0.4
v 0.3 4.8 0.3
v 0.3 4.8 -0.3
v 0.3 4.9 0.3
v 0.3 4.9 -0.3
v 0.4 4.5 0.3
v 0.4 4.5 -0.3
v 0.4 4.6 0.4
v 0.4 4.6 0.3
v 0.4 4.6 -0.3
v 0.4 4.6 -0.4
v 0.4 4.8 0.4
v 0.4 4.8 -0.4
v -0.3 -1.4 2.1
v -0.3 4 2.1
v -0.2 4 2.1
v -0.2 4.1 2.1
v 0.2 4 2.1
v 0.2 4.1 2.1
v 0.3 -1.4 2.1
v 0.3 4 2.1
v -0.4 4.6 0.4
v -0.4 4.8 0.4
v -0.3 4.5 0.4
v -0.3 4.6 0.4
v 0.3 4.5 0.4
v 0.3 4.6 0.4
v 0.4 4.6 0.4
v 0.4 4.8 0.4
v -0.4 4.5 0.3
v -0.4 4.6 0.3
v -0.3 4.5 0.3
v -0.3 4.6 0.3
v -0.3 4.8 0.3
v -0.3 4.9 0.3
v 0.3 4.5 0.3
v 0.3 4.6 0.3
v 0.3 4.8 0.3
v 0.3 4.9 0.3
v 0.4 4.5 0.3
v 0.4 4.6 0.3
v -0.2 -5 0.2
v -0.2 -1.4 0.2
v -0.2 4.1 0.2
v -0.2 4.5 0.2
v -0.2 4.9 0.2
v -0.2 5 0.2
v 0.2 -5 0.2
v 0.2 -1.4 0.2
v 0.2 4.1 0.2
v 0.2 4.5 0.2
v 0.2 4.9 0.2
v 0.2 5 0.2
v -0.2 -5 -0.2
v -0.2 -1.4 -0.2
v -0.2 4.1 -0.2
v -0.2 4.5 -0.2
v -0.2 4.9 -0.2
v -0.2 5 -0.2
v 0.2 -5 -0.2
v 0.2 -1.4 -0.2
v 0.2 4.1 -0.2
v 0.2 4.5 -0.2
v 0.2 4.9 -0.2
v 0.2 5 -0.2
v -0.4 4.5 -0.3
v -0.4 4.6 -0.3
v -0.3 4.5 -0.3
v -0.3 4.6 -0.3
v -0.3 4.8 -0.3
v -0.3 4.9 -0.3
v 0.3 4.5 -0.3
v 0.3 4.6 -0.3
v 0.3 4.8 -0.3
v 0.3 4.9 -0.3
v 0.4 4.5 -0.3
v 0.4 4.6 -0.3
v -0.4 4.6 -0.4
v -0.4 4.8 -0.4
v -0.3 4.5 -0.4
v -0.3 4.6 -0.4
v 0.3 4.5 -0.4
v 0.3 4.6 -0.4
v 0.4 4.6 -0.4
v 0.4 4.8 -0.4
v -0.3 -1.4 -2.1
v -0.3 4 -2.1
v -0.2 4 -2.1
v -0.2 4.1 -2.1
v 0.2 4 -2.1
v 0.2 4.1 -2.1
v 0.3 -1.4 -2.1
v 0.3 4 -2.1
v -0.2 -5 0.2
v 0.2 -5 0.2
v -0.2 -5 -0.2
v 0.2 -5 -0.2
v -0.3 -1.4 2.1
v 0.3 -1.4 2.1
v -0.2 -1.4 0.2
v 0.2 -1.4 0.2
v -0.2 -1.4 -0.2
v 0.2 -1.4 -0.2
v -0.3 -1.4 -2.1
v 0.3 -1.4 -2.1
v -0.3 4.5 0.4
v 0.3 4.5 0.4
v -0.4 4.5 0.3
v -0.3 4.5 0.3
v 0.3 4.5 0.3
v 0.4 4.5 0.3
v -0.2 4.5 0.2
v 0.2 4.5 0.2
v -0.2 4.5 -0.2
v 0.2 4.5 -0.2
v -0.4 4.5 -0.3
v -0.3 4.5 -0.3
v 0.3 4.5 -0.3
v 0.4 4.5 -0.3
v -0.3 4.5 -0.4
v 0.3 4.5 -0.4
v -0.4 4.6 0.4
v -0.3 4.6 0.4
v 0.3 4.6 0.4
v 0.4 4.6 0.4
v -0.4 4.6 0.3
v -0.3 4.6 0.3
v 0.3 4.6 0.3
v 0.4 4.6 0.3
v -0.4 4.6 -0.3
v -0.3 4.6 -0.3
v 0.3 4.6 -0.3
v 0.4 4.6 -0.3
v -0.4 4.6 -0.4
v -0.3 4.6 -0.4
v 0.3 4.6 -0.4
v 0.4 4.6 -0.4
v -0.3 4 2.1
v -0.2 4 2.1
v 0.2 4 2.1
v 0.3 4 2.1
v -0.3 4 -2.1
v -0.2 4 -2.1
v 0.2 4 -2.1
v 0.3 4 -2.1
v -0.2 4.1 2.1
v 0.2 4.1 2.1
v -0.2 4.1 0.2
v 0.2 4.1 0.2
v -0.2 4.1 -0.2
v 0.2 4.1 -0.2
v -0.2 4.1 -2.1
v 0.2 4.1 -2.1
v -0.4 4.8 0.4
v 0.4 4.8 0.4
v -0.3 4.8 0.3
v 0.3 4.8 0.3
v -0.3 4.8 -0.3
v 0.3 4.8 -0.3
v -0.4 4.8 -0.4
v 0.4 4.8 -0.4
v -0.3 4.9 0.3
v 0.3 4.9 0.3
v -0.2 4.9 0.2
v 0.2 4.9 0.2
v -0.2 4.9 -0.2
v 0.2 4.9 -0.2
v -0.3 4.9 -0.3
v 0.3 4.9 -0.3
v -0.2 5 0.2
v 0.2 5 0.2
v -0.2 5 -0.2
v 0.2 5 -0.2

# faces
f 4/3/1 2/3/1 1/3/1
f 5/3/1 2/3/1 4/3/1
f 7/3/1 4/3/1 3/3/1
f 7/3/1 6/3/1 5/3/1
f 7/3/1 5/3/1 4/3/1
f 8/3/1 6/3/1 7/3/1
f 11/2/1 10/2/1 9/2/1
f 12/2/1 10/2/1 11/2/1
f 17/3/1 14/3/1 13/3/1
f 18/3/1 14/3/1 17/3/1
f 19/3/1 16/3/1 15/3/1
f 20/3/1 16/3/1 19/3/1
f 23/3/1 22/3/1 21/3/1
f 24/3/1 22/3/1 23/3/1
f 27/1/1 26/1/1 25/1/1
f 28/1/1 26/1/1 27/1/1
f 31/1/1 30/1/1 29/1/1
f 32/1/1 30/1/1 31/1/1
f 33/1/1 30/1/1 32/1/1
f 34/1/1 30/1/1 33/1/1
f 35/1/1 33/1/1 32/1/1
f 36/1/1 33/1/1 35/1/1
f 39/3/1 38/3/1 37/3/1
f 40/3/1 38/3/1 39/3/1
f 41/1/2 42/1/2 43/1/2
f 43/1/2 42/1/2 44/1/2
f 45/1/2 46/1/2 47/1/2
f 47/1/2 46/1/2 48/1/2
f 48/1/2 46/1/2 49/1/2
f 49/1/2 46/1/2 50/1/2
f 48/1/2 49/1/2 51/1/2
f 51/1/2 49/1/2 52/1/2
f 53/3/2 54/3/2 55/3/2
f 55/3/2 54/3/2 56/3/2
f 57/2/2 58/2/2 59/2/2
f 59/2/2 58/2/2 60/2/2
f 61/3/2 62/3/2 65/3/2
f 65/3/2 62/3/2 66/3/2
f 63/3/2 64/3/2 67/3/2
f 67/3/2 64/3/2 68/3/2
f 69/3/2 70/3/2 71/3/2
f 71/3/2 70/3/2 72/3/2
f 73/3/2 74/3/2 76/3/2
f 76/3/2 74/3/2 77/3/2
f 75/3/2 76/3/2 79/3/2
f 77/3/2 78/3/2 79/3/2
f 76/3/2 77/3/2 79/3/2
f 79/3/2 78/3/2 80/3/2
f 83/2/3 82/2/3 81/2/3
f 85/2/3 83/2/3 81/2/3
f 85/1/3 84/1/3 83/1/3
f 86/1/3 84/1/3 85/1/3
f 87/2/3 85/2/3 81/2/3
f 88/2/3 85/2/3 87/2/3
f 92/3/3 90/3/3 89/3/3
f 93/3/3 92/3/3 91/3/3
f 94/3/3 90/3/3 92/3/3
f 94/3/3 92/3/3 93/3/3
f 95/3/3 90/3/3 94/3/3
f 96/3/3 90/3/3 95/3/3
f 99/3/3 98/3/3 97/3/3
f 100/3/3 98/3/3 99/3/3
f 105/3/3 102/3/3 101/3/3
f 106/3/3 102/3/3 105/3/3
f 107/3/3 104/3/3 103/3/3
f 108/3/3 104/3/3 107/3/3
f 115/1/3 110/1/3 109/1/3
f 116/1/3 110/1/3 115/1/3
f 117/1/3 112/1/3 111/1/3
f 118/1/3 112/1/3 117/1/3
f 119/3/3 114/3/3 113/3/3
f 120/3/3 114/3/3 119/3/3
f 121/1/4 122/1/4 127/1/4
f 127/1/4 122/1/4 128/1/4
f 123/1/4 124/1/4 129/1/4
f 129/1/4 124/1/4 130/1/4
f 125/3/4 126/3/4 131/3/4
f 131/3/4 126/3/4 132/3/4
f 133/3/4 134/3/4 135/3/4
f 135/3/4 134/3/4 136/3/4
f 137/3/4 138/3/4 141/3/4
f 141/3/4 138/3/4 142/3/4
f 139/3/4 140/3/4 143/3/4
f 143/3/4 140/3/4 144/3/4
f 145/3/4 146/3/4 148/3/4
f 147/3/4 148/3/4 149/3/4
f 148/3/4 146/3/4 150/3/4
f 149/3/4 148/3/4 150/3/4
f 150/3/4 146/3/4 151/3/4
f 151/3/4 146/3/4 152/3/4
f 153/2/4 154/2/4 155/2/4
f 153/2/4 155/2/4 157/2/4
f 155/1/4 156/1/4 157/1/4
f 157/1/4 156/1/4 158/1/4
f 153/2/4 157/2/4 159/2/4
f 159/2/4 157/2/4 160/2/4
f 163/1/5 162/1/5 161/1/5
f 164/1/5 162/1/5 163/1/5
f 167/2/5 166/2/5 165/2/5
f 168/2/5 166/2/5 167/2/5
f 169/2/5 167/2/5 165/2/5
f 170/2/5 166/2/5 168/2/5
f 171/2/5 169/2/5 165/2/5
f 171/2/5 170/2/5 169/2/5
f 172/2/5 166/2/5 170/2/5
f 172/2/5 170/2/5 171/2/5
f 176/3/5 174/3/5 173/3/5
f 177/3/5 174/3/5 176/3/5
f 179/3/5 176/3/5 175/3/5
f 179/3/5 178/3/5 177/3/5
f 179/3/5 177/3/5 176/3/5
f 180/3/5 178/3/5 179/3/5
f 181/3/5 179/3/5 175/3/5
f 182/3/5 178/3/5 180/3/5
f 183/3/5 181/3/5 175/3/5
f 183/3/5 182/3/5 181/3/5
f 184/3/5 182/3/5 183/3/5
f 185/3/5 178/3/5 182/3/5
f 185/3/5 182/3/5 184/3/5
f 186/3/5 178/3/5 185/3/5
f 187/3/5 185/3/5 184/3/5
f 188/3/5 185/3/5 187/3/5
f 193/3/5 190/3/5 189/3/5
f 194/3/5 190/3/5 193/3/5
f 195/3/5 192/3/5 191/3/5
f 196/3/5 192/3/5 195/3/5
f 201/3/5 198/3/5 197/3/5
f 202/3/5 198/3/5 201/3/5
f 203/3/5 200/3/5 199/3/5
f 204/3/5 200/3/5 203/3/5
f 205/2/6 206/2/6 209/2/6
f 209/2/6 206/2/6 210/2/6
f 207/2/6 208/2/6 211/2/6
f 211/2/6 208/2/6 212/2/6
f 213/1/6 214/1/6 215/1/6
f 215/1/6 214/1/6 216/1/6
f 217/1/6 218/1/6 219/1/6
f 219/1/6 218/1/6 220/1/6
f 221/3/6 222/3/6 223/3/6
f 223/3/6 222/3/6 224/3/6
f 221/3/6 223/3/6 225/3/6
f 224/3/6 222/3/6 226/3/6
f 221/3/6 225/3/6 227/3/6
f 225/3/6 226/3/6 227/3/6
f 226/3/6 222/3/6 228/3/6
f 227/3/6 226/3/6 228/3/6
f 229/3/6 230/3/6 231/3/6
f 231/3/6 230/3/6 232/3/6
f 229/3/6 231/3/6 233/3/6
f 232/3/6 230/3/6 234/3/6
f 229/3/6 233/3/6 235/3/6
f 233/3/6 234/3/6 235/3/6
f 234/3/6 230/3/6 236/3/6
f 235/3/6 234/3/6 236/3/6
f 237/3/6 238/3/6 239/3/6
f 239/3/6 238/3/6 240/3/6
