# MagicaVoxel @ Ephtracy

# group
o 

# material
mtllib LeaderUnit_Red.mtl
usemtl palette

# normals
vn -1 0 0
vn 1 0 0
vn 0 0 1
vn 0 0 -1
vn 0 -1 0
vn 0 1 0

# texcoords
vt 0.0214844 0.5
vt 0.841797 0.5
vt 0.962891 0.5

# verts
v -0.4 4.5 0.3
v -0.4 4.5 -0.3
v -0.4 4.6 0.4
v -0.4 4.6 0.3
v -0.4 4.6 -0.3
v -0.4 4.6 -0.4
v -0.4 4.8 0.4
v -0.4 4.8 -0.4
v -0.3 -1.9 2.1
v -0.3 -1.9 -2.1
v -0.3 -1.4 2.1
v -0.3 -1.4 -2.1
v -0.3 3.5 2.1
v -0.3 3.5 -2.1
v -0.3 4 2.1
v -0.3 4 -2.1
v -0.3 4.5 0.4
v -0.3 4.5 0.3
v -0.3 4.5 -0.3
v -0.3 4.5 -0.4
v -0.3 4.6 0.4
v -0.3 4.6 0.3
v -0.3 4.6 -0.3
v -0.3 4.6 -0.4
v -0.3 4.8 0.3
v -0.3 4.8 -0.3
v -0.3 4.9 0.3
v -0.3 4.9 -0.3
v -0.2 -5 0.2
v -0.2 -5 -0.2
v -0.2 -1.9 0.2
v -0.2 -1.9 -0.2
v -0.2 4 2.1
v -0.2 4 -2.1
v -0.2 4.1 2.1
v -0.2 4.1 0.2
v -0.2 4.1 -0.2
v -0.2 4.1 -2.1
v -0.2 4.5 0.2
v -0.2 4.5 -0.2
v -0.2 4.9 0.2
v -0.2 4.9 -0.2
v -0.2 5 0.2
v -0.2 5 -0.2
v 0.2 -5 0.2
v 0.2 -5 -0.2
v 0.2 -1.9 0.2
v 0.2 -1.9 -0.2
v 0.2 4 2.1
v 0.2 4 -2.1
v 0.2 4.1 2.1
v 0.2 4.1 0.2
v 0.2 4.1 -0.2
v 0.2 4.1 -2.1
v 0.2 4.5 0.2
v 0.2 4.5 -0.2
v 0.2 4.9 0.2
v 0.2 4.9 -0.2
v 0.2 5 0.2
v 0.2 5 -0.2
v 0.3 -1.9 2.1
v 0.3 -1.9 -2.1
v 0.3 -1.4 2.1
v 0.3 -1.4 -2.1
v 0.3 3.5 2.1
v 0.3 3.5 -2.1
v 0.3 4 2.1
v 0.3 4 -2.1
v 0.3 4.5 0.4
v 0.3 4.5 0.3
v 0.3 4.5 -0.3
v 0.3 4.5 -0.4
v 0.3 4.6 0.4
v 0.3 4.6 0.3
v 0.3 4.6 -0.3
v 0.3 4.6 -0.4
v 0.3 4.8 0.3
v 0.3 4.8 -0.3
v 0.3 4.9 0.3
v 0.3 4.9 -0.3
v 0.4 4.5 0.3
v 0.4 4.5 -0.3
v 0.4 4.6 0.4
v 0.4 4.6 0.3
v 0.4 4.6 -0.3
v 0.4 4.6 -0.4
v 0.4 4.8 0.4
v 0.4 4.8 -0.4
v -0.3 -1.9 2.1
v -0.3 -1.4 2.1
v -0.3 3.5 2.1
v -0.3 4 2.1
v -0.2 4 2.1
v -0.2 4.1 2.1
v 0.2 4 2.1
v 0.2 4.1 2.1
v 0.3 -1.9 2.1
v 0.3 -1.4 2.1
v 0.3 3.5 2.1
v 0.3 4 2.1
v -0.4 4.6 0.4
v -0.4 4.8 0.4
v -0.3 4.5 0.4
v -0.3 4.6 0.4
v 0.3 4.5 0.4
v 0.3 4.6 0.4
v 0.4 4.6 0.4
v 0.4 4.8 0.4
v -0.4 4.5 0.3
v -0.4 4.6 0.3
v -0.3 4.5 0.3
v -0.3 4.6 0.3
v -0.3 4.8 0.3
v -0.3 4.9 0.3
v 0.3 4.5 0.3
v 0.3 4.6 0.3
v 0.3 4.8 0.3
v 0.3 4.9 0.3
v 0.4 4.5 0.3
v 0.4 4.6 0.3
v -0.2 -5 0.2
v -0.2 -1.9 0.2
v -0.2 4.1 0.2
v -0.2 4.5 0.2
v -0.2 4.9 0.2
v -0.2 5 0.2
v 0.2 -5 0.2
v 0.2 -1.9 0.2
v 0.2 4.1 0.2
v 0.2 4.5 0.2
v 0.2 4.9 0.2
v 0.2 5 0.2
v -0.2 -5 -0.2
v -0.2 -1.9 -0.2
v -0.2 4.1 -0.2
v -0.2 4.5 -0.2
v -0.2 4.9 -0.2
v -0.2 5 -0.2
v 0.2 -5 -0.2
v 0.2 -1.9 -0.2
v 0.2 4.1 -0.2
v 0.2 4.5 -0.2
v 0.2 4.9 -0.2
v 0.2 5 -0.2
v -0.4 4.5 -0.3
v -0.4 4.6 -0.3
v -0.3 4.5 -0.3
v -0.3 4.6 -0.3
v -0.3 4.8 -0.3
v -0.3 4.9 -0.3
v 0.3 4.5 -0.3
v 0.3 4.6 -0.3
v 0.3 4.8 -0.3
v 0.3 4.9 -0.3
v 0.4 4.5 -0.3
v 0.4 4.6 -0.3
v -0.4 4.6 -0.4
v -0.4 4.8 -0.4
v -0.3 4.5 -0.4
v -0.3 4.6 -0.4
v 0.3 4.5 -0.4
v 0.3 4.6 -0.4
v 0.4 4.6 -0.4
v 0.4 4.8 -0.4
v -0.3 -1.9 -2.1
v -0.3 -1.4 -2.1
v -0.3 3.5 -2.1
v -0.3 4 -2.1
v -0.2 4 -2.1
v -0.2 4.1 -2.1
v 0.2 4 -2.1
v 0.2 4.1 -2.1
v 0.3 -1.9 -2.1
v 0.3 -1.4 -2.1
v 0.3 3.5 -2.1
v 0.3 4 -2.1
v -0.2 -5 0.2
v 0.2 -5 0.2
v -0.2 -5 -0.2
v 0.2 -5 -0.2
v -0.3 -1.9 2.1
v 0.3 -1.9 2.1
v -0.2 -1.9 0.2
v 0.2 -1.9 0.2
v -0.2 -1.9 -0.2
v 0.2 -1.9 -0.2
v -0.3 -1.9 -2.1
v 0.3 -1.9 -2.1
v -0.3 4.5 0.4
v 0.3 4.5 0.4
v -0.4 4.5 0.3
v -0.3 4.5 0.3
v 0.3 4.5 0.3
v 0.4 4.5 0.3
v -0.2 4.5 0.2
v 0.2 4.5 0.2
v -0.2 4.5 -0.2
v 0.2 4.5 -0.2
v -0.4 4.5 -0.3
v -0.3 4.5 -0.3
v 0.3 4.5 -0.3
v 0.4 4.5 -0.3
v -0.3 4.5 -0.4
v 0.3 4.5 -0.4
v -0.4 4.6 0.4
v -0.3 4.6 0.4
v 0.3 4.6 0.4
v 0.4 4.6 0.4
v -0.4 4.6 0.3
v -0.3 4.6 0.3
v 0.3 4.6 0.3
v 0.4 4.6 0.3
v -0.4 4.6 -0.3
v -0.3 4.6 -0.3
v 0.3 4.6 -0.3
v 0.4 4.6 -0.3
v -0.4 4.6 -0.4
v -0.3 4.6 -0.4
v 0.3 4.6 -0.4
v 0.4 4.6 -0.4
v -0.3 4 2.1
v -0.2 4 2.1
v 0.2 4 2.1
v 0.3 4 2.1
v -0.3 4 -2.1
v -0.2 4 -2.1
v 0.2 4 -2.1
v 0.3 4 -2.1
v -0.2 4.1 2.1
v 0.2 4.1 2.1
v -0.2 4.1 0.2
v 0.2 4.1 0.2
v -0.2 4.1 -0.2
v 0.2 4.1 -0.2
v -0.2 4.1 -2.1
v 0.2 4.1 -2.1
v -0.4 4.8 0.4
v 0.4 4.8 0.4
v -0.3 4.8 0.3
v 0.3 4.8 0.3
v -0.3 4.8 -0.3
v 0.3 4.8 -0.3
v -0.4 4.8 -0.4
v 0.4 4.8 -0.4
v -0.3 4.9 0.3
v 0.3 4.9 0.3
v -0.2 4.9 0.2
v 0.2 4.9 0.2
v -0.2 4.9 -0.2
v 0.2 4.9 -0.2
v -0.3 4.9 -0.3
v 0.3 4.9 -0.3
v -0.2 5 0.2
v 0.2 5 0.2
v -0.2 5 -0.2
v 0.2 5 -0.2

# faces
f 4/1/1 2/1/1 1/1/1
f 5/1/1 2/1/1 4/1/1
f 7/1/1 4/1/1 3/1/1
f 7/1/1 6/1/1 5/1/1
f 7/1/1 5/1/1 4/1/1
f 8/1/1 6/1/1 7/1/1
f 11/1/1 10/1/1 9/1/1
f 12/1/1 10/1/1 11/1/1
f 13/2/1 12/2/1 11/2/1
f 14/2/1 12/2/1 13/2/1
f 15/1/1 14/1/1 13/1/1
f 16/1/1 14/1/1 15/1/1
f 21/1/1 18/1/1 17/1/1
f 22/1/1 18/1/1 21/1/1
f 23/1/1 20/1/1 19/1/1
f 24/1/1 20/1/1 23/1/1
f 27/1/1 26/1/1 25/1/1
f 28/1/1 26/1/1 27/1/1
f 31/3/1 30/3/1 29/3/1
f 32/3/1 30/3/1 31/3/1
f 35/3/1 34/3/1 33/3/1
f 36/3/1 34/3/1 35/3/1
f 37/3/1 34/3/1 36/3/1
f 38/3/1 34/3/1 37/3/1
f 39/3/1 37/3/1 36/3/1
f 40/3/1 37/3/1 39/3/1
f 43/1/1 42/1/1 41/1/1
f 44/1/1 42/1/1 43/1/1
f 45/3/2 46/3/2 47/3/2
f 47/3/2 46/3/2 48/3/2
f 49/3/2 50/3/2 51/3/2
f 51/3/2 50/3/2 52/3/2
f 52/3/2 50/3/2 53/3/2
f 53/3/2 50/3/2 54/3/2
f 52/3/2 53/3/2 55/3/2
f 55/3/2 53/3/2 56/3/2
f 57/1/2 58/1/2 59/1/2
f 59/1/2 58/1/2 60/1/2
f 61/1/2 62/1/2 63/1/2
f 63/1/2 62/1/2 64/1/2
f 63/2/2 64/2/2 65/2/2
f 65/2/2 64/2/2 66/2/2
f 65/1/2 66/1/2 67/1/2
f 67/1/2 66/1/2 68/1/2
f 69/1/2 70/1/2 73/1/2
f 73/1/2 70/1/2 74/1/2
f 71/1/2 72/1/2 75/1/2
f 75/1/2 72/1/2 76/1/2
f 77/1/2 78/1/2 79/1/2
f 79/1/2 78/1/2 80/1/2
f 81/1/2 82/1/2 84/1/2
f 84/1/2 82/1/2 85/1/2
f 83/1/2 84/1/2 87/1/2
f 85/1/2 86/1/2 87/1/2
f 84/1/2 85/1/2 87/1/2
f 87/1/2 86/1/2 88/1/2
f 93/1/3 92/1/3 91/1/3
f 95/1/3 93/1/3 91/1/3
f 95/3/3 94/3/3 93/3/3
f 96/3/3 94/3/3 95/3/3
f 97/1/3 90/1/3 89/1/3
f 98/2/3 91/2/3 90/2/3
f 98/1/3 90/1/3 97/1/3
f 99/1/3 95/1/3 91/1/3
f 99/2/3 91/2/3 98/2/3
f 100/1/3 95/1/3 99/1/3
f 104/1/3 102/1/3 101/1/3
f 105/1/3 104/1/3 103/1/3
f 106/1/3 102/1/3 104/1/3
f 106/1/3 104/1/3 105/1/3
f 107/1/3 102/1/3 106/1/3
f 108/1/3 102/1/3 107/1/3
f 111/1/3 110/1/3 109/1/3
f 112/1/3 110/1/3 111/1/3
f 117/1/3 114/1/3 113/1/3
f 118/1/3 114/1/3 117/1/3
f 119/1/3 116/1/3 115/1/3
f 120/1/3 116/1/3 119/1/3
f 127/3/3 122/3/3 121/3/3
f 128/3/3 122/3/3 127/3/3
f 129/3/3 124/3/3 123/3/3
f 130/3/3 124/3/3 129/3/3
f 131/1/3 126/1/3 125/1/3
f 132/1/3 126/1/3 131/1/3
f 133/3/4 134/3/4 139/3/4
f 139/3/4 134/3/4 140/3/4
f 135/3/4 136/3/4 141/3/4
f 141/3/4 136/3/4 142/3/4
f 137/1/4 138/1/4 143/1/4
f 143/1/4 138/1/4 144/1/4
f 145/1/4 146/1/4 147/1/4
f 147/1/4 146/1/4 148/1/4
f 149/1/4 150/1/4 153/1/4
f 153/1/4 150/1/4 154/1/4
f 151/1/4 152/1/4 155/1/4
f 155/1/4 152/1/4 156/1/4
f 157/1/4 158/1/4 160/1/4
f 159/1/4 160/1/4 161/1/4
f 160/1/4 158/1/4 162/1/4
f 161/1/4 160/1/4 162/1/4
f 162/1/4 158/1/4 163/1/4
f 163/1/4 158/1/4 164/1/4
f 167/1/4 168/1/4 169/1/4
f 167/1/4 169/1/4 171/1/4
f 169/3/4 170/3/4 171/3/4
f 171/3/4 170/3/4 172/3/4
f 165/1/4 166/1/4 173/1/4
f 166/2/4 167/2/4 174/2/4
f 173/1/4 166/1/4 174/1/4
f 167/1/4 171/1/4 175/1/4
f 174/2/4 167/2/4 175/2/4
f 175/1/4 171/1/4 176/1/4
f 179/3/5 178/3/5 177/3/5
f 180/3/5 178/3/5 179/3/5
f 183/1/5 182/1/5 181/1/5
f 184/1/5 182/1/5 183/1/5
f 185/1/5 183/1/5 181/1/5
f 186/1/5 182/1/5 184/1/5
f 187/1/5 185/1/5 181/1/5
f 187/1/5 186/1/5 185/1/5
f 188/1/5 182/1/5 186/1/5
f 188/1/5 186/1/5 187/1/5
f 192/1/5 190/1/5 189/1/5
f 193/1/5 190/1/5 192/1/5
f 195/1/5 192/1/5 191/1/5
f 195/1/5 194/1/5 193/1/5
f 195/1/5 193/1/5 192/1/5
f 196/1/5 194/1/5 195/1/5
f 197/1/5 195/1/5 191/1/5
f 198/1/5 194/1/5 196/1/5
f 199/1/5 197/1/5 191/1/5
f 199/1/5 198/1/5 197/1/5
f 200/1/5 198/1/5 199/1/5
f 201/1/5 194/1/5 198/1/5
f 201/1/5 198/1/5 200/1/5
f 202/1/5 194/1/5 201/1/5
f 203/1/5 201/1/5 200/1/5
f 204/1/5 201/1/5 203/1/5
f 209/1/5 206/1/5 205/1/5
f 210/1/5 206/1/5 209/1/5
f 211/1/5 208/1/5 207/1/5
f 212/1/5 208/1/5 211/1/5
f 217/1/5 214/1/5 213/1/5
f 218/1/5 214/1/5 217/1/5
f 219/1/5 216/1/5 215/1/5
f 220/1/5 216/1/5 219/1/5
f 221/1/6 222/1/6 225/1/6
f 225/1/6 222/1/6 226/1/6
f 223/1/6 224/1/6 227/1/6
f 227/1/6 224/1/6 228/1/6
f 229/3/6 230/3/6 231/3/6
f 231/3/6 230/3/6 232/3/6
f 233/3/6 234/3/6 235/3/6
f 235/3/6 234/3/6 236/3/6
f 237/1/6 238/1/6 239/1/6
f 239/1/6 238/1/6 240/1/6
f 237/1/6 239/1/6 241/1/6
f 240/1/6 238/1/6 242/1/6
f 237/1/6 241/1/6 243/1/6
f 241/1/6 242/1/6 243/1/6
f 242/1/6 238/1/6 244/1/6
f 243/1/6 242/1/6 244/1/6
f 245/1/6 246/1/6 247/1/6
f 247/1/6 246/1/6 248/1/6
f 245/1/6 247/1/6 249/1/6
f 248/1/6 246/1/6 250/1/6
f 245/1/6 249/1/6 251/1/6
f 249/1/6 250/1/6 251/1/6
f 250/1/6 246/1/6 252/1/6
f 251/1/6 250/1/6 252/1/6
f 253/1/6 254/1/6 255/1/6
f 255/1/6 254/1/6 256/1/6
